<svg width="24" height="24" viewBox="0 0 24 24" fill="none" xmlns="http://www.w3.org/2000/svg">
<path fill-rule="evenodd" clip-rule="evenodd" d="M19.7068 5.70711C20.0974 5.31658 20.0974 4.68342 19.7068 4.29289C19.3163 3.90237 18.6832 3.90237 18.2926 4.29289L11.9999 10.5857L5.70711 4.29291C5.31658 3.90238 4.68342 3.90238 4.29289 4.29291C3.90237 4.68343 3.90237 5.3166 4.29289 5.70712L10.5856 11.9999L4.29289 18.2926C3.90237 18.6832 3.90237 19.3163 4.29289 19.7068C4.68342 20.0974 5.31658 20.0974 5.70711 19.7068L11.9999 13.4141L18.2926 19.7069C18.6832 20.0974 19.3163 20.0974 19.7068 19.7069C20.0974 19.3163 20.0974 18.6832 19.7068 18.2926L13.4141 11.9999L19.7068 5.70711Z" class="fill" />
</svg>
