<svg width="15" height="15" viewBox="0 0 24 24" fill="none" xmlns="http://www.w3.org/2000/svg">
<path fill-rule="evenodd" clip-rule="evenodd" d="M8 13C8 10.2386 10.2386 8 13 8H18C20.7614 8 23 10.2386 23 13V18C23 20.7614 20.7614 23 18 23H13C10.2386 23 8 20.7614 8 18V13ZM13 10C11.3431 10 10 11.3431 10 13V18C10 19.6569 11.3431 21 13 21H18C19.6569 21 21 19.6569 21 18V13C21 11.3431 19.6569 10 18 10H13Z" fill="#393C47"/>
<path fill-rule="evenodd" clip-rule="evenodd" d="M0.75 5.75C0.75 2.98858 2.98858 0.75 5.75 0.75H10.75C13.5114 0.75 15.75 2.98858 15.75 5.75V7H13.75V5.75C13.75 4.09315 12.4069 2.75 10.75 2.75H5.75C4.09315 2.75 2.75 4.09315 2.75 5.75V10.75C2.75 12.4069 4.09315 13.75 5.75 13.75H7V15.75H5.75C2.98858 15.75 0.75 13.5114 0.75 10.75V5.75Z" fill="#393C47"/>
</svg>
