<svg width="16" height="16" viewBox="0 0 24 24" fill="none" xmlns="http://www.w3.org/2000/svg">
<path fill-rule="evenodd" clip-rule="evenodd" d="M13 2C13 1.44772 12.5523 1 12 1C11.4477 1 11 1.44772 11 2L11 13.5858L6.70711 9.29289C6.31658 8.90237 5.68342 8.90237 5.29289 9.29289C4.90237 9.68342 4.90237 10.3166 5.29289 10.7071L11.2929 16.7071L12 17.4142L12.7071 16.7071L12.7074 16.7068L18.7071 10.7071C19.0976 10.3166 19.0976 9.68342 18.7071 9.29289C18.3166 8.90237 17.6834 8.90237 17.2929 9.29289L13 13.5858L13 2Z" class="fill"/>
<path d="M2.5 15V15.6C2.5 17.8402 2.5 18.9603 2.93597 19.816C3.31947 20.5686 3.93139 21.1805 4.68404 21.564C5.53968 22 6.65979 22 8.9 22H15.1C17.3402 22 18.4603 22 19.316 21.564C20.0686 21.1805 20.6805 20.5686 21.064 19.816C21.5 18.9603 21.5 17.8402 21.5 15.6V15" class="stroke" stroke-width="2" stroke-linecap="round"/>
</svg>
