<svg width="24" height="24" viewBox="0 0 24 24" fill="none" xmlns="http://www.w3.org/2000/svg">
<path fill-rule="evenodd" clip-rule="evenodd" d="M15 3.00043C15.0339 3.00077 15.0594 3.00136 15.0811 3.00236L15.0847 3.00253L15.0874 3.00494C15.1225 3.03699 15.1689 3.08305 15.2615 3.17568L18.8243 6.73843C18.9169 6.83106 18.963 6.87746 18.995 6.91257L18.9974 6.91523L18.9976 6.91882C18.9986 6.94057 18.9992 6.96609 18.9995 6.99995H17.2C16.6234 6.99995 16.2512 6.99917 15.9678 6.97602C15.6962 6.95382 15.5955 6.91615 15.546 6.89095C15.3578 6.79508 15.2049 6.6421 15.109 6.45394C15.0838 6.40449 15.0461 6.30377 15.0239 6.03211C15.0008 5.74877 15 5.3765 15 4.79995V3.00043ZM14 0.999947H14.8373L14.8883 0.999855C15.0782 0.999348 15.3173 0.998709 15.5527 1.05521C15.7567 1.1042 15.9518 1.18501 16.1308 1.29467C16.3371 1.42112 16.5058 1.59066 16.6397 1.72531L16.6757 1.76147L20.2385 5.32421L20.2746 5.36023C20.4093 5.49416 20.5788 5.66281 20.7053 5.86916C20.8149 6.04811 20.8957 6.2432 20.9447 6.44727C21.0012 6.6826 21.0006 6.92174 21.0001 7.11166L21 7.16269V7.99995V18.7999V18.8385C21 19.3657 21 19.8204 20.9694 20.195C20.9371 20.5903 20.8658 20.9835 20.673 21.3619C20.3854 21.9264 19.9265 22.3853 19.362 22.673C18.9836 22.8658 18.5904 22.9371 18.195 22.9694C17.8205 23 17.3657 23 16.8386 22.9999H16.8H9.3178C8.36749 23.6318 7.22674 23.9999 6 23.9999C2.68629 23.9999 0 21.3137 0 17.9999C0 15.7791 1.2066 13.8401 3 12.8026V5.19995L3 5.1614V5.1614V5.16139V5.16139C2.99998 4.63425 2.99997 4.17949 3.03057 3.80492C3.06287 3.40957 3.13419 3.01636 3.32698 2.63798C3.6146 2.07349 4.07354 1.61455 4.63803 1.32693C5.01641 1.13413 5.40963 1.06282 5.80497 1.03052C6.17954 0.999913 6.63431 0.999928 7.16145 0.999946L7.16146 0.999946L7.2 0.999947H14ZM8.38279 21.2131C8.39415 21.2042 8.40569 21.1955 8.41743 21.1871C9.37907 20.4565 10 19.3008 10 17.9999C10 15.7908 8.20914 13.9999 6 13.9999C3.79086 13.9999 2 15.7908 2 17.9999C2 20.2091 3.79086 21.9999 6 21.9999C6.89278 21.9999 7.71724 21.7075 8.38279 21.2131ZM16.8 20.9999H11.1973C11.7078 20.1174 12 19.0928 12 17.9999C12 14.6862 9.31371 11.9999 6 11.9999C5.65929 11.9999 5.32521 12.0283 5 12.0829V5.19995C5 4.62339 5.00078 4.25112 5.02393 3.96778C5.04612 3.69612 5.0838 3.5954 5.10899 3.54596C5.20487 3.35779 5.35785 3.20481 5.54601 3.10894C5.59545 3.08375 5.69617 3.04607 5.96784 3.02387C6.25117 3.00072 6.62345 2.99995 7.2 2.99995H13V4.79995L13 4.83849C13 5.36564 13 5.8204 13.0306 6.19497C13.0629 6.59032 13.1342 6.98354 13.327 7.36192C13.6146 7.9264 14.0735 8.38535 14.638 8.67297C15.0164 8.86576 15.4096 8.93708 15.805 8.96938C16.1795 8.99998 16.6343 8.99997 17.1615 8.99995L17.2 8.99995H19V18.7999C19 19.3765 18.9992 19.7488 18.9761 20.0321C18.9539 20.3038 18.9162 20.4045 18.891 20.4539C18.7951 20.6421 18.6422 20.7951 18.454 20.891C18.4045 20.9161 18.3038 20.9538 18.0322 20.976C17.7488 20.9992 17.3766 20.9999 16.8 20.9999ZM6.75 15.9999C6.75 15.5857 6.41421 15.2499 6 15.2499C5.58579 15.2499 5.25 15.5857 5.25 15.9999V17.2499H4C3.58579 17.2499 3.25 17.5857 3.25 17.9999C3.25 18.4142 3.58579 18.7499 4 18.7499H5.25V19.9999C5.25 20.4142 5.58579 20.7499 6 20.7499C6.41421 20.7499 6.75 20.4142 6.75 19.9999V18.7499H8C8.41421 18.7499 8.75 18.4142 8.75 17.9999C8.75 17.5857 8.41421 17.2499 8 17.2499H6.75V15.9999Z" class="fill"/>
</svg>
