<svg version="1.0" xmlns="http://www.w3.org/2000/svg" width="3000" height="33" viewBox="0 0 1600 130"><path style="fill:var(--icon-color)" d="M55.3 11.5c-17.1 4.6-31.8 17.8-37.9 34-3.2 8.4-4.3 22.9-2.5 31.6 2.1 10 7.4 19.4 15.4 27.3 8.4 8.3 14.6 11.9 25.3 14.6 13.3 3.4 26.3 2.1 38.2-3.9 6.9-3.5 15.2-9.8 18.1-13.9l2.1-3-10.7-8.8c-5.9-4.9-11.7-9.7-13-10.7-2.3-1.9-2.3-1.8-6.6 2.6-5.1 5.2-10.1 7.1-16.9 6.5-18.7-1.8-25-28.9-9.5-41.2 2.9-2.3 5-3.1 9.6-3.4 7.9-.6 12.3 1.1 17 6.4l3.9 4.5 12.4-10.2c6.7-5.6 12.7-10.6 13.3-11.1.6-.5-1.7-3.3-5.8-7.3-7.4-7.1-17.5-12.5-26.5-14.4-7.2-1.5-19.6-1.3-25.9.4zM158.1 11.6c-12.7 3.4-25 12.3-32.5 23.5-5.7 8.7-7.9 15.9-8.4 28-.5 12 .8 18 6 28.3 3.7 7.4 15.1 19 22.5 22.9 6.5 3.4 19 6.7 25.8 6.7 26.4 0 49.6-18.8 55-44.5 1.8-8.8 1.8-13.2 0-22-4.4-21.1-20.3-37.7-41-43-7.4-1.9-20.3-1.8-27.4.1zm22.2 32.8c6.9 3 12.7 12.2 12.7 20.3 0 16.9-15.2 27.9-29.5 21.4-13.4-6-16.4-27.7-5.3-37.7 5.8-5.3 15.1-7 22.1-4zM446.3 11.5c-12.1 3.3-22.3 10.8-26.8 19.8l-2.5 5.1V13h-82v105h81.9l.3-6 .3-6.1 3.5 2.7c5.3 4 16.7 9 24.7 10.8 19 4.2 40.3-.7 51.6-12 6.1-6.2 9-12.3 9.5-20.2.6-8.7-1.2-14.4-6.5-20.2-5.6-6.2-13-9.8-29.9-14.6-12.8-3.6-17.8-5.5-18.8-7.3-1.8-2.8 3.5-6.1 9.6-6.1 6.9 0 12.2 2.3 16.9 7.2l4.7 4.9 11.1-9.1c6.1-5 11.1-9.6 11.1-10.1 0-.6-2.7-3.7-5.9-6.8-6.6-6.3-15.5-11.3-24.6-13.6-7.3-1.9-21.2-1.8-28.2 0zM416 45.8c0 5.6 3.4 12.7 8.4 17.7 6.5 6.5 14.7 10.5 31.2 15 12.1 3.3 17.4 5.6 17.4 7.3 0 .5-.6 1.7-1.4 2.8-1.2 1.6-2.9 2-10.3 2.2-11.2.5-18.7-2-23.5-7.7l-3.2-3.8-8.5 6.8-8.6 6.9-.3-3-.3-3H371v-6h41.1l-.3-15.3-.3-15.2H371V44h22.5c21.1 0 22.5.1 22.5 1.8zM731.1 11.6c-8.6 2.3-18.4 8.1-24.9 14.6-17.2 17.1-21.2 43.7-9.9 65.3 3.8 7.3 15.3 19 22.4 22.8 11.4 6.1 26.7 8.1 39.1 5.2 11-2.6 24.9-11.1 30.1-18.3l2.1-3-10.7-8.8c-5.9-4.9-11.7-9.7-13-10.7-2.3-1.9-2.3-1.8-6.6 2.6-5.1 5.2-10.1 7.1-16.9 6.5-18.7-1.8-25-28.9-9.5-41.2 2.9-2.3 5-3.1 9.6-3.4 7.9-.6 12.3 1.1 17 6.4l3.9 4.5 12.4-10.2c6.7-5.6 12.7-10.6 13.3-11.1.6-.5-1.7-3.3-5.8-7.3-7.4-7.1-17.5-12.5-26.5-14.4-7.2-1.5-19.6-1.3-26.1.5zM906.3 11.5c-12.2 3.3-22.4 10.9-26.7 19.9l-2.5 5.1-.1-11.8V13h-82v105h82v-6c0-6.4.6-7.2 3.5-4.1 2.9 3.3 17.5 9.8 25.9 11.7 20.8 4.5 45.1-2.8 54.8-16.3l3.3-4.5.6 3.3c1.2 7 4.8 11.7 11.2 14.4 7 2.9 15.1 1.1 20.4-4.7 6.7-7.1 5.3-21.1-2.5-26.7-7.3-5.2-18-4.3-23.6 1.8-1.1 1.2-2.2 2.1-2.6 2.1-.3 0-.7-2.5-.8-5.5-.2-7.4-2.9-13.1-8.6-18.3-6-5.5-11.7-8.1-29-13.2-13.4-3.8-18.6-6.1-18.6-7.9 0-1.8 4.1-4.3 7.8-4.8 7.3-1 14.1 1.4 19.4 6.9l4.8 4.9 10.7-8.7c6-4.8 11.2-9.1 11.7-9.5.5-.5-2-3.7-5.7-7.3-7.2-7.1-17.3-12.6-26.5-14.5-7.2-1.5-20.6-1.3-26.9.4zm-29.8 36.2c.9 5.9 5.4 14.1 9.9 17.9 5.9 5.1 14.4 8.8 28.9 12.8C927.7 81.7 933 84 933 86c0 .6-.9 1.9-2 3-1.7 1.7-3.3 2-10.5 2-10.8 0-18.2-2.6-22.7-8l-3.2-3.8-8.6 7.1-8.5 7-.3-3.1-.3-3.2H831v-6h41.1l-.3-15.3-.3-15.2-20.2-.3L831 50v-6h44.9l.6 3.7zM1043 11.5c-19.1 5.3-33.9 19.9-39.6 39-2.6 8.9-2.4 22.2.6 31.4 10.9 33.9 50.4 49.3 80.9 31.4 6.3-3.7 14.7-11.8 18.7-18 10.5-16.2 11.4-39.9 2.2-56.3-6.8-12.2-16.7-20.7-29.4-25.6-8.7-3.4-24.7-4.3-33.4-1.9zm22.8 33.4c7.9 4.1 11.7 10.7 11.6 20.6-.1 10.5-4.3 17.5-12.6 21-9.8 4.1-21-.1-25.9-9.7-5.9-11.5-1.5-26.8 9.3-32.1 4.5-2.3 13-2.2 17.6.2zM233.9 64c-.1 28-.2 51.6-.3 52.2-.1 1 6.5 1.3 29.9 1.3 29.1 0 30.2-.1 35.8-2.4 26.5-10.6 37.6-47.4 23.2-76.8-6.6-13.3-18.1-22-32.1-24.3-3.3-.6-17.3-1-31.1-1H234l-.1 51zm53.2-16.2c3.8 4.3 5.2 10.1 4.7 20.2-.5 9.7-3 15.9-7.3 17.8-1.4.7-5.3 1.2-8.5 1.2h-6V43.8l7.1.4c6.5.3 7.4.7 10 3.6zM510 65.5V118h36V89h7.3c11.1-.1 21.4-1.7 27.3-4.4 6.9-3.2 13.9-10.2 17.2-17.4 2.4-5 2.7-6.9 2.7-16.2 0-9.3-.3-11.2-2.6-16.1-5.2-11-15.1-18.6-27.3-20.8-3.4-.6-17.9-1.1-33.3-1.1H510v52.5zm52.5-20.1c1.2.9 1.9 2.6 1.9 4.7 0 6.6-.4 6.9-9.9 6.9H546v-5.8c0-3.2.3-6.2.7-6.5 1.2-1.3 13.9-.7 15.8.7zM607.7 64.8c-9.2 28.4-16.7 52.1-16.7 52.5 0 .4 8.1.7 18 .7h17.9l1.2-4.3c.6-2.3 1.9-7.1 2.8-10.7l1.8-6.5h22.8l1.8 7c1 3.8 2.3 8.7 2.8 10.7l1 3.8H679c9.9 0 18-.4 18-.9 0-.4-5.1-16.7-11.4-36.2-6.3-19.5-13.7-42.7-16.6-51.7L663.9 13h-39.5l-16.7 51.8zm37.7-7.1c.3 1.6.8 3.8 1.2 5 .6 2.1.3 2.3-2.6 2.3-2.4 0-3.1-.4-2.7-1.4.3-.8.9-3.1 1.3-5 .8-4.3 1.9-4.6 2.8-.9zM1118 65.5V118h36V98.4c0-10.7.4-19.3.8-19 .5.3 6 9.1 12.3 19.6l11.4 19h34.5V13h-36l-.2 19.7-.3 19.7-11.9-19.7-11.9-19.7H1118v52.5zM1221 65.5V118h82V87l-22.7-.2-22.8-.3-.3-36.8-.2-36.7h-36v52.5zM1308 65.5V118h36V13h-36v52.5zM1352 65.5V118h36l.2-19.7.3-19.7 11.8 19.7 11.8 19.7h34.9V13h-36v19.6c0 10.7-.4 19.3-.8 19-.5-.3-6-9-12.3-19.5l-11.4-19-17.2-.1H1352v52.5zM1455 65.5V118h82V87h-46v-6h41.1l-.3-15.3-.3-15.2-20-.1-20-.1-.3-3.2-.3-3.1h46.1V13h-82v52.5z"/></svg>