<svg width="16" height="16" viewBox="0 0 24 24" fill="none" xmlns="http://www.w3.org/2000/svg">
<path fill-rule="evenodd" clip-rule="evenodd" d="M4 7C4 5.34315 5.34315 4 7 4H8C8.55228 4 9 3.55228 9 3C9 2.44772 8.55228 2 8 2H7C4.23858 2 2 4.23858 2 7V8C2 8.55228 2.44772 9 3 9C3.55228 9 4 8.55228 4 8V7ZM4 17C4 18.6569 5.34315 20 7 20H8C8.55228 20 9 20.4477 9 21C9 21.5523 8.55228 22 8 22H7C4.23858 22 2 19.7614 2 17V16C2 15.4477 2.44772 15 3 15C3.55228 15 4 15.4477 4 16V17ZM17 4C18.6569 4 20 5.34315 20 7V8C20 8.55228 20.4477 9 21 9C21.5523 9 22 8.55228 22 8V7C22 4.23858 19.7614 2 17 2H16C15.4477 2 15 2.44772 15 3C15 3.55228 15.4477 4 16 4H17ZM20 17C20 18.6569 18.6569 20 17 20H16C15.4477 20 15 20.4477 15 21C15 21.5523 15.4477 22 16 22H17C19.7614 22 22 19.7614 22 17V16C22 15.4477 21.5523 15 21 15C20.4477 15 20 15.4477 20 16V17Z" class="fill"/>
</svg>
