<svg width="24" height="24" viewBox="0 0 24 24" fill="none" xmlns="http://www.w3.org/2000/svg">
<path fill-rule="evenodd" clip-rule="evenodd" d="M16 5.5C17.25 5.5 18.5 4.25 18.5 3C18.5 4.25 19.75 5.5 21 5.5C19.75 5.5 18.5 6.75 18.5 8C18.5 6.75 17.25 5.5 16 5.5ZM19 12.5C20.25 12.5 21.5 11.25 21.5 10C21.5 11.25 22.75 12.5 24 12.5C22.75 12.5 21.5 13.75 21.5 15C21.5 13.75 20.25 12.5 19 12.5ZM14.5 8C14.5 9.25 13.25 10.5 12 10.5C13.25 10.5 14.5 11.75 14.5 13C14.5 11.75 15.75 10.5 17 10.5C15.75 10.5 14.5 9.25 14.5 8Z" class="fill"/>
<path d="M3.22397 16.801C0.296202 11.1319 4.39781 3.99422 10.802 3.93626C10.802 3.93626 5.0674 8.86674 8 14.5C10.9326 20.1333 18.6343 17.6458 18.6343 17.6458C15.5958 23.5792 6.15174 22.4701 3.22397 16.801Z" class="stroke" stroke-width="1.6" stroke-linejoin="round"/>
</svg>
