<svg width="16" height="16" viewBox="0 0 24 24" fill="none" xmlns="http://www.w3.org/2000/svg">
<path fill-rule="evenodd" clip-rule="evenodd" d="M12 4C9.72855 4 7.67959 4.94535 6.22213 6.46679C5.66398 7.04944 5.19336 7.71594 4.83103 8.44503L4.386 9.34055L2.59497 8.45048L3.04001 7.55497C3.49326 6.6429 4.08134 5.81039 4.77787 5.08327C6.59691 3.18438 9.16098 2 12 2C17.5228 2 22 6.47715 22 12C22 17.5228 17.5228 22 12 22C6.47715 22 2 17.5228 2 12H4C4 16.4183 7.58172 20 12 20C16.4183 20 20 16.4183 20 12C20 7.58172 16.4183 4 12 4Z" fill="#acacac"/>
<path d="M10 9H3V3" stroke="#acacac" stroke-width="2" stroke-linecap="round"/>
</svg>
