<svg width="16" height="16" viewBox="0 0 24 24" fill="none" xmlns="http://www.w3.org/2000/svg">
<g clip-path="url(#clip0_1101_2575)">
<path fill-rule="evenodd" clip-rule="evenodd" d="M20 1C20 0.447715 19.5523 0 19 0C18.4477 0 18 0.447715 18 1C18 1.67477 17.6525 2.43324 17.0429 3.04289C16.4332 3.65255 15.6748 4 15 4C14.4477 4 14 4.44772 14 5C14 5.55228 14.4477 6 15 6C15.6748 6 16.4332 6.34745 17.0429 6.95711C17.6525 7.56676 18 8.32523 18 9C18 9.55229 18.4477 10 19 10C19.5523 10 20 9.55229 20 9C20 8.32523 20.3475 7.56676 20.9571 6.95711C21.5668 6.34745 22.3252 6 23 6C23.5523 6 24 5.55228 24 5C24 4.44772 23.5523 4 23 4C22.3252 4 21.5668 3.65255 20.9571 3.04289C20.3475 2.43324 20 1.67477 20 1ZM18.4571 4.45711C18.6507 4.26347 18.8331 4.05323 19 3.82912C19.1669 4.05323 19.3493 4.26347 19.5429 4.45711C19.7365 4.65074 19.9468 4.83313 20.1709 5C19.9468 5.16687 19.7365 5.34926 19.5429 5.54289C19.3493 5.73653 19.1669 5.94677 19 6.17088C18.8331 5.94677 18.6507 5.73653 18.4571 5.54289C18.2635 5.34926 18.0532 5.16687 17.8291 5C18.0532 4.83313 18.2635 4.65074 18.4571 4.45711ZM10.5 6C10.5 5.44772 10.0523 5 9.5 5C8.94771 5 8.5 5.44772 8.5 6C8.5 7.79977 7.59005 9.68324 6.13664 11.1366C4.68324 12.59 2.79977 13.5 1 13.5C0.447715 13.5 0 13.9477 0 14.5C0 15.0523 0.447715 15.5 1 15.5C2.79977 15.5 4.68324 16.41 6.13664 17.8634C7.59005 19.3168 8.5 21.2002 8.5 23C8.5 23.5523 8.94771 24 9.5 24C10.0523 24 10.5 23.5523 10.5 23C10.5 21.2002 11.41 19.3168 12.8634 17.8634C14.3168 16.41 16.2002 15.5 18 15.5C18.5523 15.5 19 15.0523 19 14.5C19 13.9477 18.5523 13.5 18 13.5C16.2002 13.5 14.3168 12.59 12.8634 11.1366C11.41 9.68324 10.5 7.79977 10.5 6ZM7.55086 12.5509C8.32447 11.7772 8.99479 10.8778 9.5 9.90112C10.0052 10.8778 10.6755 11.7772 11.4491 12.5509C12.2228 13.3245 13.1222 13.9948 14.0989 14.5C13.1222 15.0052 12.2228 15.6755 11.4491 16.4491C10.6755 17.2228 10.0052 18.1222 9.5 19.0989C8.99479 18.1222 8.32447 17.2228 7.55086 16.4491C6.77724 15.6755 5.87775 15.0052 4.90112 14.5C5.87775 13.9948 6.77724 13.3245 7.55086 12.5509Z" class="fill"/>
</g>
<defs>
<clipPath id="clip0_1101_2575">
<rect width="24" height="24" fill="white"/>
</clipPath>
</defs>
</svg>
