<svg width="16" height="16" viewBox="0 0 24 24" fill="none" xmlns="http://www.w3.org/2000/svg">
<path d="M8 5L8.45298 3.64105C8.64969 3.05094 8.74804 2.75588 8.93047 2.53774C9.09156 2.3451 9.29844 2.19599 9.53213 2.10408C9.79677 2 10.1078 2 10.7298 2H13.2702C13.8922 2 14.2032 2 14.4679 2.10408C14.7016 2.19599 14.9084 2.3451 15.0695 2.53774C15.252 2.75588 15.3503 3.05094 15.547 3.64105L16 5" class="stroke" stroke-width="2" stroke-linecap="round" stroke-linejoin="round"/>
<path fill-rule="evenodd" clip-rule="evenodd" d="M1 5C1 4.44772 1.44772 4 2 4H4H20H22C22.5523 4 23 4.44772 23 5C23 5.55228 22.5523 6 22 6C21.8933 6 21.84 6 21.7944 6.00419C21.3363 6.04625 20.966 6.39541 20.8971 6.85025C20.8902 6.89555 20.8871 6.94879 20.8808 7.05527L20.3526 16.0345L20.3502 16.0759C20.2899 17.101 20.2412 17.9294 20.1479 18.5996C20.0517 19.2909 19.8989 19.8955 19.5863 20.4512C19.0883 21.3366 18.3325 22.0492 17.4195 22.4944C16.8463 22.7738 16.2339 22.8909 15.5381 22.9463C14.8635 23 14.0337 23 13.0068 23H12.9654H11.0346H10.9932C9.96628 23 9.13649 23 8.4619 22.9463C7.76614 22.8909 7.15369 22.7738 6.58054 22.4944C5.66749 22.0492 4.91167 21.3366 4.41369 20.4512C4.1011 19.8955 3.94825 19.2909 3.85207 18.5996C3.7588 17.9294 3.71008 17.101 3.64979 16.0759L3.64736 16.0345L3.11917 7.05527C3.11291 6.94879 3.10977 6.89555 3.10291 6.85025C3.03403 6.39541 2.66372 6.04625 2.20562 6.00419C2.16 6 2.10667 6 2 6C1.44772 6 1 5.55228 1 5ZM7.18166 6C6.18694 6 5.68957 6 5.39353 6.31397C5.09749 6.62794 5.1267 7.12444 5.18511 8.11745L5.64391 15.9171C5.70721 16.9933 5.75199 17.7419 5.83298 18.324C5.9123 18.8941 6.01691 19.2219 6.15686 19.4707C6.45565 20.0019 6.90914 20.4295 7.45697 20.6966C7.71358 20.8217 8.04702 20.9069 8.62073 20.9526C9.20655 20.9993 9.95657 21 11.0346 21H12.9654C14.0434 21 14.7934 20.9993 15.3793 20.9526C15.953 20.9069 16.2864 20.8217 16.543 20.6966C17.0909 20.4295 17.5443 20.0019 17.8431 19.4707C17.9831 19.2219 18.0877 18.8941 18.167 18.324C18.248 17.7419 18.2928 16.9933 18.3561 15.9171L18.8149 8.11744C18.8733 7.12444 18.9025 6.62794 18.6065 6.31397C18.3104 6 17.8131 6 16.8183 6H7.18166Z" class="fill"/>
<path d="M10 10V17" class="stroke" stroke-width="2" stroke-linecap="round" stroke-linejoin="round"/>
<path d="M14 10V17" class="stroke" stroke-width="2" stroke-linecap="round" stroke-linejoin="round"/>
</svg>
